<svg width="20" height="21" viewBox="0 0 20 21" fill="none" xmlns="http://www.w3.org/2000/svg">
<path d="M0.851628 0.00507236C0.592923 0.0920391 0.369796 0.261295 0.216324 0.486988C0.0628526 0.712682 -0.0125265 0.982407 0.0016998 1.25497V13.7539C0.0016998 14.0854 0.133385 14.4033 0.367785 14.6377C0.602186 14.8721 0.920101 15.0038 1.25159 15.0038H7.50106V17.5036H5.00128C3.62639 17.5036 2.50149 18.6285 2.50149 20.0034H17.5002C17.5002 18.6285 16.3753 17.5036 15.0004 17.5036H12.5006V15.0038H18.7501C19.0816 15.0038 19.3995 14.8721 19.6339 14.6377C19.8683 14.4033 20 14.0854 20 13.7539V1.25497C20 0.923474 19.8683 0.605558 19.6339 0.371158C19.3995 0.136757 19.0816 0.00507236 18.7501 0.00507236L1.25159 0.00507236C1.17675 -0.00169079 1.10145 -0.00169079 1.02661 0.00507236C0.976662 0.00206991 0.926576 0.00206991 0.876625 0.00507236L0.851628 0.00507236ZM2.50149 2.50486H17.5002V12.504H2.50149V2.50486Z" fill="#585858"/>
</svg>
