<svg width="15" height="15" viewBox="0 0 15 15" fill="none" xmlns="http://www.w3.org/2000/svg">
<path d="M7.49064 0C6.1985 0 4.98127 0.355805 3.91386 0.936329L9.94382 5.31835L11.3483 1.10487C10.2247 0.430711 8.89513 0 7.49064 0ZM2.34082 2.1161C0.917603 3.48315 0 5.37453 0 7.50936C0 7.97753 0.0374532 8.40824 0.11236 8.85768L5.89888 4.70037L2.3221 2.1161H2.34082ZM12.8839 2.35955L10.5993 9.38202H14.7004C14.8502 8.78277 15 8.16479 15 7.50936C15 5.50562 14.176 3.70786 12.8839 2.35955ZM4.04494 8.38951L0.76779 10.7303C1.79775 12.8464 3.76404 14.4569 6.16105 14.8876L4.04494 8.38951ZM6.96629 11.2547L8.14607 14.9438C10.6367 14.7191 12.7528 13.2959 13.9326 11.2547H6.96629Z" fill="#DCB38C"/>
</svg>
